<svg height='100px' width='100px'  fill="#404aa7" xmlns="http://www.w3.org/2000/svg" xmlns:xlink="http://www.w3.org/1999/xlink" version="1.1" x="0px" y="0px" viewBox="0 0 64 64" style="enable-background:new 0 0 64 64;" xml:space="preserve"><g><path d="M58,7H6c-2.757,0-5,2.243-5,5v32c0,2.757,2.243,5,5,5h21v2h-5c-1.654,0-3,1.346-3,3v2c0,0.552,0.448,1,1,1h24   c0.552,0,1-0.448,1-1v-2c0-1.654-1.346-3-3-3h-5v-2h21c2.757,0,5-2.243,5-5V12C63,9.243,60.757,7,58,7z M43,54v1H21v-1   c0-0.551,0.449-1,1-1h20C42.551,53,43,53.449,43,54z M35,51h-6v-2h6V51z M61,44c0,1.654-1.346,3-3,3H6c-1.654,0-3-1.346-3-3V12   c0-1.654,1.346-3,3-3h52c1.654,0,3,1.346,3,3V44z"></path><path d="M48,15h-3v2h3c1.654,0,3,1.346,3,3v16c0,1.654-1.346,3-3,3H16c-1.654,0-3-1.346-3-3V20c0-1.654,1.346-3,3-3h19v-2H16   c-2.757,0-5,2.243-5,5v16c0,2.757,2.243,5,5,5h32c2.757,0,5-2.243,5-5V20C53,17.243,50.757,15,48,15z"></path><path d="M24.447,19.105c-0.31-0.154-0.678-0.138-0.973,0.044C23.18,19.332,23,19.653,23,20v16c0,0.347,0.18,0.668,0.474,0.851   C23.635,36.95,23.817,37,24,37c0.153,0,0.306-0.035,0.447-0.105l16-8C40.786,28.725,41,28.379,41,28s-0.214-0.725-0.553-0.895   L24.447,19.105z M25,34.382V21.618L37.764,28L25,34.382z"></path><path d="M40,20c1.654,0,3-1.346,3-3v-4h2v-2h-3c-0.552,0-1,0.448-1,1v2.184C40.686,14.072,40.352,14,40,14c-1.654,0-3,1.346-3,3   S38.346,20,40,20z M40,16c0.551,0,1,0.449,1,1s-0.449,1-1,1s-1-0.449-1-1S39.449,16,40,16z"></path></g></svg>